<?xml version="1.0" encoding="UTF-8" standalone="no"?>
<svg
   xmlns:dc="http://purl.org/dc/elements/1.1/"
   xmlns:cc="http://creativecommons.org/ns#"
   xmlns:rdf="http://www.w3.org/1999/02/22-rdf-syntax-ns#"
   xmlns:svg="http://www.w3.org/2000/svg"
   xmlns="http://www.w3.org/2000/svg"
   id="svg34753"
   version="1.1"
   viewBox="0 0 408.28143 38.714199"
   height="38.714199mm"
   width="408.28143mm">
  <defs
     id="defs34747" />
  <metadata
     id="metadata34750">
    <rdf:RDF>
      <cc:Work
         rdf:about="">
        <dc:format>image/svg+xml</dc:format>
        <dc:type
           rdf:resource="http://purl.org/dc/dcmitype/StillImage" />
        <dc:title></dc:title>
      </cc:Work>
    </rdf:RDF>
  </metadata>
  <g
     transform="translate(148.20025,-151.39885)"
     id="layer1">
    <g
       id="g304683"
       transform="matrix(0.16361268,0,0,0.16361268,-154.67595,151.39895)"
       style="fill:#ffffff;fill-opacity:1">
      <g
         id="g304651"
         style="fill:#ffffff;fill-opacity:1">
        <g
           id="g304649"
           style="fill:#ffffff;fill-opacity:1">
          <path
             id="path304647"
             d="m 197.023,225.545 c -1.145,-9.533 -11.68,-10.614 -17.805,-9.958 -6.521,-24.554 16.225,-61.151 17.563,-69.82 1.438,-9.312 -6.658,-63.5 -7.513,-90.938 C 188.389,26.662 147.48,-4.433 140.65,0.524 c -6.768,7.484 9.748,17.585 1.054,26.245 -8.398,8.367 -10.588,13.99 -16.824,23.46 -15.976,24.255 27.318,24.558 27.318,24.558 0,0 -33.882,25.112 -41.421,37.768 -6.943,11.656 -9.854,24.696 -18.232,35.688 -19.094,25.051 -14.791,68.729 -14.791,68.729 0,0 -36.17,-11.839 -16.264,-53.133 C 76.643,132.406 84.107,86.02 50.016,97.95 c -13.189,4.616 2.949,14.325 5.734,17.435 9.318,10.4 1.441,27.896 -4.174,38.012 -15.037,27.091 -20.496,55.475 11.154,72.978 14.063,7.776 33.055,9.7 52.17,9.982 l 48.64,0.14 c 16.024,0.797 34.149,-2.199 33.483,-10.952 z"
             style="fill:#ffffff;fill-opacity:1" />
          <path
             style="fill:#ffffff;fill-opacity:1"
             d="m 197.023,225.545 c -1.145,-9.533 -11.68,-10.614 -17.805,-9.958 -6.521,-24.554 16.225,-61.151 17.563,-69.82 1.438,-9.312 -6.658,-63.5 -7.513,-90.938 C 188.389,26.662 147.48,-4.433 140.65,0.524 c -6.768,7.484 9.748,17.585 1.054,26.245 -8.398,8.367 -10.588,13.99 -16.824,23.46 -15.976,24.255 27.318,24.558 27.318,24.558 0,0 -33.882,25.112 -41.421,37.768 -6.943,11.656 -9.854,24.696 -18.232,35.688 -19.094,25.051 -14.791,68.729 -14.791,68.729 0,0 -36.17,-11.839 -16.264,-53.133 C 76.643,132.406 84.107,86.02 50.016,97.95 c -13.189,4.616 2.949,14.325 5.734,17.435 9.318,10.4 1.441,27.896 -4.174,38.012 -15.037,27.091 -20.496,55.475 11.154,72.978 14.063,7.776 33.055,9.7 52.17,9.982 l 48.64,0.14 c 16.024,0.797 34.149,-2.199 33.483,-10.952 z"
             id="path304722" />
        </g>
      </g>
      <g
         id="g304653"
         style="fill:#ffffff;fill-opacity:1" />
      <g
         id="g304655"
         style="fill:#ffffff;fill-opacity:1" />
      <g
         id="g304657"
         style="fill:#ffffff;fill-opacity:1" />
      <g
         id="g304659"
         style="fill:#ffffff;fill-opacity:1" />
      <g
         id="g304661"
         style="fill:#ffffff;fill-opacity:1" />
      <g
         id="g304663"
         style="fill:#ffffff;fill-opacity:1" />
      <g
         id="g304665"
         style="fill:#ffffff;fill-opacity:1" />
      <g
         id="g304667"
         style="fill:#ffffff;fill-opacity:1" />
      <g
         id="g304669"
         style="fill:#ffffff;fill-opacity:1" />
      <g
         id="g304671"
         style="fill:#ffffff;fill-opacity:1" />
      <g
         id="g304673"
         style="fill:#ffffff;fill-opacity:1" />
      <g
         id="g304675"
         style="fill:#ffffff;fill-opacity:1" />
      <g
         id="g304677"
         style="fill:#ffffff;fill-opacity:1" />
      <g
         id="g304679"
         style="fill:#ffffff;fill-opacity:1" />
      <g
         id="g304681"
         style="fill:#ffffff;fill-opacity:1" />
    </g>
    <text
       xml:space="preserve"
       style="font-style:normal;font-variant:normal;font-weight:300;font-stretch:normal;font-size:22.12426567px;line-height:125%;font-family:Montserrat;-inkscape-font-specification:'Montserrat Light';letter-spacing:0px;word-spacing:0px;fill:#ffffff;fill-opacity:1;stroke:none;stroke-width:0.11523058px;stroke-linecap:butt;stroke-linejoin:miter;stroke-opacity:1"
       x="-110.23235"
       y="178.49944"
       id="text304699"><tspan
         x="-110.23235"
         y="178.49944"
         style="font-style:normal;font-variant:normal;font-weight:500;font-stretch:normal;font-family:Montserrat;-inkscape-font-specification:'Montserrat Medium';letter-spacing:0px;fill:#ffffff;stroke-width:0.11523058px"
         id="tspan304697">MAPA DO</tspan></text>
    <text
       id="text304703"
       y="178.3663"
       x="121.61246"
       style="font-style:normal;font-variant:normal;font-weight:300;font-stretch:normal;font-size:21.7438755px;line-height:125%;font-family:Montserrat;-inkscape-font-specification:'Montserrat Light';letter-spacing:0px;word-spacing:0px;fill:#ffffff;fill-opacity:1;stroke:none;stroke-width:0.11324941px;stroke-linecap:butt;stroke-linejoin:miter;stroke-opacity:1"
       xml:space="preserve"><tspan
         id="tspan304701"
         style="font-style:normal;font-variant:normal;font-weight:800;font-stretch:normal;font-family:Montserrat;-inkscape-font-specification:'Montserrat Ultra-Bold';letter-spacing:0px;fill:#ffffff;stroke-width:0.11324941px"
         y="178.3663"
         x="121.61246">DE ARNOLD</tspan></text>
    <g
       transform="matrix(1.3067441,0,0,1.3067441,-280.92241,-83.545017)"
       id="g304720">
      <g
         id="g304695"
         style="font-style:normal;font-variant:normal;font-weight:normal;font-stretch:normal;font-size:21.43116951px;line-height:125%;font-family:Montserrat;-inkscape-font-specification:Montserrat;letter-spacing:0px;word-spacing:0px;fill:#ffffff;fill-opacity:1;stroke:none;stroke-width:0.11162066px;stroke-linecap:butt;stroke-linejoin:miter;stroke-opacity:1"
         aria-label="GATO"
         transform="matrix(1.2519659,0,0,1.2519659,169.78618,-133.9767)">
        <path
           id="path304687"
           style="font-style:normal;font-variant:normal;font-weight:bold;font-stretch:normal;font-family:Montserrat;-inkscape-font-specification:'Montserrat Bold';letter-spacing:-1.0045861px;fill:#ffffff;stroke-width:0.11162066px"
           d="m 55.525582,262.21809 h 3.171813 v 6.08645 q -1.221576,0.92154 -2.828914,1.41446 -1.607338,0.49292 -3.236107,0.49292 -2.335997,0 -4.200509,-0.98584 -1.864512,-1.00726 -2.93607,-2.76462 -1.050128,-1.77879 -1.050128,-4.00763 0,-2.22884 1.050128,-3.98619 1.071558,-1.77879 2.957501,-2.76463 1.885943,-1.00726 4.243372,-1.00726 1.971667,0 3.579005,0.66437 1.607338,0.66436 2.700327,1.9288 l -2.228841,2.05739 q -1.607338,-1.69306 -3.879042,-1.69306 -1.435888,0 -2.550309,0.60007 -1.114421,0.60008 -1.735925,1.69307 -0.621504,1.09299 -0.621504,2.50744 0,1.39303 0.621504,2.48602 0.621504,1.09299 1.714494,1.71449 1.114421,0.60008 2.528878,0.60008 1.500182,0 2.700327,-0.64294 z" />
        <path
           id="path304689"
           style="font-style:normal;font-variant:normal;font-weight:bold;font-stretch:normal;font-family:Montserrat;-inkscape-font-specification:'Montserrat Bold';letter-spacing:-1.0045861px;fill:#ffffff;stroke-width:0.11162066px"
           d="m 70.797633,266.74007 h -6.96513 l -1.328732,3.21467 h -3.557574 l 6.686525,-15.00182 h 3.428987 l 6.707956,15.00182 h -3.643299 z m -1.092989,-2.63604 -2.37886,-5.74355 -2.37886,5.74355 z" />
        <path
           id="path304691"
           style="font-style:normal;font-variant:normal;font-weight:bold;font-stretch:normal;font-family:Montserrat;-inkscape-font-specification:'Montserrat Bold';letter-spacing:-1.0045861px;fill:#ffffff;stroke-width:0.11162066px"
           d="m 78.675598,257.78184 h -4.800582 v -2.82892 h 13.073013 v 2.82892 h -4.800582 v 12.1729 h -3.471849 z" />
        <path
           id="path304693"
           style="font-style:normal;font-variant:normal;font-weight:bold;font-stretch:normal;font-family:Montserrat;-inkscape-font-specification:'Montserrat Bold';letter-spacing:-1.0045861px;fill:#ffffff;stroke-width:0.11162066px"
           d="m 94.846421,270.21192 q -2.335998,0 -4.221941,-1.00727 -1.864511,-1.00726 -2.93607,-2.76462 -1.050127,-1.77879 -1.050127,-3.9862 0,-2.20741 1.050127,-3.96476 1.071559,-1.77879 2.93607,-2.78606 1.885943,-1.00726 4.221941,-1.00726 2.335997,0 4.200509,1.00726 1.86451,1.00727 2.93607,2.78606 1.07156,1.75735 1.07156,3.96476 0,2.20741 -1.07156,3.9862 -1.07156,1.75736 -2.93607,2.76462 -1.864512,1.00727 -4.200509,1.00727 z m 0,-2.9575 q 1.328732,0 2.400291,-0.60008 1.071558,-0.6215 1.671631,-1.71449 0.621504,-1.09299 0.621504,-2.48602 0,-1.39302 -0.621504,-2.48601 -0.600073,-1.09299 -1.671631,-1.69306 -1.071559,-0.62151 -2.400291,-0.62151 -1.328733,0 -2.400291,0.62151 -1.071559,0.60007 -1.693062,1.69306 -0.600073,1.09299 -0.600073,2.48601 0,1.39303 0.600073,2.48602 0.621503,1.09299 1.693062,1.71449 1.071558,0.60008 2.400291,0.60008 z" />
      </g>
      <path
         id="path304705"
         d="m 239.30231,194.31141 v 3.94765 l 3.971,-3.94765 z"
         style="fill:#24214a;fill-opacity:1;fill-rule:evenodd;stroke:none;stroke-width:0.3312493px;stroke-linecap:butt;stroke-linejoin:miter;stroke-opacity:1" />
      <path
         id="path304707"
         d="m 278.72019,185.21566 -3.70736,3.58771 h 3.70736 z"
         style="fill:#24214a;fill-opacity:1;fill-rule:evenodd;stroke:none;stroke-width:0.33555108px;stroke-linecap:butt;stroke-linejoin:miter;stroke-opacity:1" />
    </g>
  </g>
</svg>
