<?xml version="1.0" encoding="UTF-8" standalone="no"?>
<svg
   xmlns:dc="http://purl.org/dc/elements/1.1/"
   xmlns:cc="http://creativecommons.org/ns#"
   xmlns:rdf="http://www.w3.org/1999/02/22-rdf-syntax-ns#"
   xmlns:svg="http://www.w3.org/2000/svg"
   xmlns="http://www.w3.org/2000/svg"
   xmlns:sodipodi="http://sodipodi.sourceforge.net/DTD/sodipodi-0.dtd"
   xmlns:inkscape="http://www.inkscape.org/namespaces/inkscape"
   id="svg34753"
   version="1.1"
   viewBox="0 0 175.94557 78.10376"
   height="78.10376mm"
   width="175.94557mm"
   sodipodi:docname="hero.svg"
   inkscape:version="0.92.2 (5c3e80d, 2017-08-06)">
  <sodipodi:namedview
     pagecolor="#ffffff"
     bordercolor="#666666"
     borderopacity="1"
     objecttolerance="10"
     gridtolerance="10"
     guidetolerance="10"
     inkscape:pageopacity="0"
     inkscape:pageshadow="2"
     inkscape:window-width="1366"
     inkscape:window-height="705"
     id="namedview191364"
     showgrid="false"
     inkscape:zoom="0.59700044"
     inkscape:cx="332.49557"
     inkscape:cy="147.59766"
     inkscape:window-x="-8"
     inkscape:window-y="-8"
     inkscape:window-maximized="1"
     inkscape:current-layer="svg34753" />
  <defs
     id="defs34747" />
  <metadata
     id="metadata34750">
    <rdf:RDF>
      <cc:Work
         rdf:about="">
        <dc:format>image/svg+xml</dc:format>
        <dc:type
           rdf:resource="http://purl.org/dc/dcmitype/StillImage" />
        <dc:title />
      </cc:Work>
    </rdf:RDF>
  </metadata>
  <g
     transform="translate(107.89558,-150.34523)"
     id="layer1">
    <g
       id="text274338"
       style="font-style:normal;font-variant:normal;font-weight:normal;font-stretch:normal;font-size:21.43116951px;line-height:125%;font-family:Montserrat;-inkscape-font-specification:Montserrat;letter-spacing:0px;word-spacing:0px;fill:#ffffff;fill-opacity:1;stroke:none;stroke-width:0.11162066px;stroke-linecap:butt;stroke-linejoin:miter;stroke-opacity:1"
       aria-label="GATO"
       transform="matrix(2.0174449,0,0,2.0174449,-139.85691,-335.82799)">
      <path
         id="path304572"
         style="font-style:normal;font-variant:normal;font-weight:bold;font-stretch:normal;font-family:Montserrat;-inkscape-font-specification:'Montserrat Bold';letter-spacing:-1.0045861px;fill:#ffffff;stroke-width:0.11162066px"
         d="m 55.525582,262.21809 h 3.171813 v 6.08645 q -1.221576,0.92154 -2.828914,1.41446 -1.607338,0.49292 -3.236107,0.49292 -2.335997,0 -4.200509,-0.98584 -1.864512,-1.00726 -2.93607,-2.76462 -1.050128,-1.77879 -1.050128,-4.00763 0,-2.22884 1.050128,-3.98619 1.071558,-1.77879 2.957501,-2.76463 1.885943,-1.00726 4.243372,-1.00726 1.971667,0 3.579005,0.66437 1.607338,0.66436 2.700327,1.9288 l -2.228841,2.05739 q -1.607338,-1.69306 -3.879042,-1.69306 -1.435888,0 -2.550309,0.60007 -1.114421,0.60008 -1.735925,1.69307 -0.621504,1.09299 -0.621504,2.50744 0,1.39303 0.621504,2.48602 0.621504,1.09299 1.714494,1.71449 1.114421,0.60008 2.528878,0.60008 1.500182,0 2.700327,-0.64294 z" />
      <path
         id="path304574"
         style="font-style:normal;font-variant:normal;font-weight:bold;font-stretch:normal;font-family:Montserrat;-inkscape-font-specification:'Montserrat Bold';letter-spacing:-1.0045861px;fill:#ffffff;stroke-width:0.11162066px"
         d="m 70.797633,266.74007 h -6.96513 l -1.328732,3.21467 h -3.557574 l 6.686525,-15.00182 h 3.428987 l 6.707956,15.00182 h -3.643299 z m -1.092989,-2.63604 -2.37886,-5.74355 -2.37886,5.74355 z" />
      <path
         id="path304576"
         style="font-style:normal;font-variant:normal;font-weight:bold;font-stretch:normal;font-family:Montserrat;-inkscape-font-specification:'Montserrat Bold';letter-spacing:-1.0045861px;fill:#ffffff;stroke-width:0.11162066px"
         d="m 78.675598,257.78184 h -4.800582 v -2.82892 h 13.073013 v 2.82892 h -4.800582 v 12.1729 h -3.471849 z" />
      <path
         id="path304578"
         style="font-style:normal;font-variant:normal;font-weight:bold;font-stretch:normal;font-family:Montserrat;-inkscape-font-specification:'Montserrat Bold';letter-spacing:-1.0045861px;fill:#ffffff;stroke-width:0.11162066px"
         d="m 94.846421,270.21192 q -2.335998,0 -4.221941,-1.00727 -1.864511,-1.00726 -2.93607,-2.76462 -1.050127,-1.77879 -1.050127,-3.9862 0,-2.20741 1.050127,-3.96476 1.071559,-1.77879 2.93607,-2.78606 1.885943,-1.00726 4.221941,-1.00726 2.335997,0 4.200509,1.00726 1.86451,1.00727 2.93607,2.78606 1.07156,1.75735 1.07156,3.96476 0,2.20741 -1.07156,3.9862 -1.07156,1.75736 -2.93607,2.76462 -1.864512,1.00727 -4.200509,1.00727 z m 0,-2.9575 q 1.328732,0 2.400291,-0.60008 1.071558,-0.6215 1.671631,-1.71449 0.621504,-1.09299 0.621504,-2.48602 0,-1.39302 -0.621504,-2.48601 -0.600073,-1.09299 -1.671631,-1.69306 -1.071559,-0.62151 -2.400291,-0.62151 -1.328733,0 -2.400291,0.62151 -1.071559,0.60007 -1.693062,1.69306 -0.600073,1.09299 -0.600073,2.48601 0,1.39303 0.600073,2.48602 0.621503,1.09299 1.693062,1.71449 1.071558,0.60008 2.400291,0.60008 z" />
    </g>
    <g
       aria-label="MAPA DO"
       style="font-style:normal;font-variant:normal;font-weight:300;font-stretch:normal;font-size:7.35307932px;line-height:125%;font-family:Montserrat;-inkscape-font-specification:'Montserrat Light';letter-spacing:0px;word-spacing:0px;fill:#ffffff;fill-opacity:1;stroke:none;stroke-width:0.03829728px;stroke-linecap:butt;stroke-linejoin:miter;stroke-opacity:1"
       id="text274350">
      <path
         d="m -38.555151,172.88622 -0.0074,-3.75008 -1.860329,3.12506 h -0.338242 l -1.860329,-3.103 v 3.72802 H -43.3273 v -5.14716 h 0.602953 l 2.147099,3.61771 2.117687,-3.61771 h 0.602952 l 0.0074,5.14716 z"
         style="font-style:normal;font-variant:normal;font-weight:500;font-stretch:normal;font-family:Montserrat;-inkscape-font-specification:'Montserrat Medium';letter-spacing:3.5401175px;fill:#ffffff;stroke-width:0.03829728px"
         id="path192558" />
      <path
         d="m -29.484944,171.59943 h -2.735345 l -0.566187,1.28679 h -0.757368 l 2.330927,-5.14716 h 0.727954 l 2.33828,5.14716 h -0.772074 z m -0.257358,-0.58825 -1.110314,-2.52211 -1.110315,2.52211 z"
         style="font-style:normal;font-variant:normal;font-weight:500;font-stretch:normal;font-family:Montserrat;-inkscape-font-specification:'Montserrat Medium';letter-spacing:3.5401175px;fill:#ffffff;stroke-width:0.03829728px"
         id="path192560" />
      <path
         d="m -21.831353,167.73906 q 1.000019,0 1.573559,0.47795 0.57354,0.47795 0.57354,1.3162 0,0.83825 -0.57354,1.3162 -0.57354,0.47795 -1.573559,0.47795 h -1.272083 v 1.55886 h -0.735308 v -5.14716 z m -0.02206,2.94858 q 0.698542,0 1.066196,-0.29412 0.367654,-0.30147 0.367654,-0.86031 0,-0.55883 -0.367654,-0.85296 -0.367654,-0.30147 -1.066196,-0.30147 h -1.250024 v 2.30886 z"
         style="font-style:normal;font-variant:normal;font-weight:500;font-stretch:normal;font-family:Montserrat;-inkscape-font-specification:'Montserrat Medium';letter-spacing:3.5401175px;fill:#ffffff;stroke-width:0.03829728px"
         id="path192562" />
      <path
         d="m -12.035718,171.59943 h -2.735346 l -0.566187,1.28679 h -0.757367 l 2.330926,-5.14716 h 0.727955 l 2.338279,5.14716 h -0.772073 z m -0.257358,-0.58825 -1.110315,-2.52211 -1.110315,2.52211 z"
         style="font-style:normal;font-variant:normal;font-weight:500;font-stretch:normal;font-family:Montserrat;-inkscape-font-specification:'Montserrat Medium';letter-spacing:3.5401175px;fill:#ffffff;stroke-width:0.03829728px"
         id="path192564" />
      <path
         d="M -0.86751407,167.73906 H 1.3016443 q 0.8161918,0 1.4485567,0.32354 0.6323648,0.32353 0.9779595,0.91178 0.3529478,0.58089 0.3529478,1.33826 0,0.75736 -0.3529478,1.34561 -0.3455947,0.58089 -0.9779595,0.90443 -0.6323649,0.32354 -1.4485567,0.32354 h -2.16915837 z m 2.12503987,4.50744 q 0.6250118,0 1.0956089,-0.24265 0.4779501,-0.24266 0.7353079,-0.67649 0.2573578,-0.44118 0.2573578,-1.01472 0,-0.57354 -0.2573578,-1.00737 -0.2573578,-0.44119 -0.7353079,-0.68384 -0.4705971,-0.24265 -1.0956089,-0.24265 h -1.38973194 v 3.86772 z"
         style="font-style:normal;font-variant:normal;font-weight:500;font-stretch:normal;font-family:Montserrat;-inkscape-font-specification:'Montserrat Medium';letter-spacing:3.5401175px;fill:#ffffff;stroke-width:0.03829728px"
         id="path192566" />
      <path
         d="m 11.071084,172.94504 q -0.779427,0 -1.4044386,-0.33824 -0.6250117,-0.3456 -0.9853126,-0.94855 -0.3529478,-0.60295 -0.3529478,-1.34561 0,-0.74266 0.3529478,-1.34562 0.3603009,-0.60295 0.9853126,-0.94119 0.6250116,-0.34559 1.4044386,-0.34559 0.772073,0 1.397085,0.34559 0.625011,0.33824 0.977959,0.94119 0.352948,0.5956 0.352948,1.34562 0,0.75001 -0.352948,1.35296 -0.352948,0.5956 -0.977959,0.9412 -0.625012,0.33824 -1.397085,0.33824 z m 0,-0.65442 q 0.566187,0 1.014725,-0.25736 0.45589,-0.25736 0.713248,-0.7059 0.264711,-0.45589 0.264711,-1.01472 0,-0.55884 -0.264711,-1.00737 -0.257358,-0.4559 -0.713248,-0.71325 -0.448538,-0.25736 -1.014725,-0.25736 -0.566188,0 -1.029432,0.25736 -0.4558905,0.25735 -0.7206013,0.71325 -0.2573578,0.44853 -0.2573578,1.00737 0,0.55883 0.2573578,1.01472 0.2647108,0.44854 0.7206013,0.7059 0.463244,0.25736 1.029432,0.25736 z"
         style="font-style:normal;font-variant:normal;font-weight:500;font-stretch:normal;font-family:Montserrat;-inkscape-font-specification:'Montserrat Medium';letter-spacing:3.5401175px;fill:#ffffff;stroke-width:0.03829728px"
         id="path192568" />
    </g>
    <g
       aria-label="DE ARNOLD"
       style="font-style:normal;font-variant:normal;font-weight:300;font-stretch:normal;font-size:10.82125378px;line-height:125%;font-family:Montserrat;-inkscape-font-specification:'Montserrat Light';letter-spacing:0px;word-spacing:0px;fill:#ffffff;fill-opacity:1;stroke:none;stroke-width:0.05636071px;stroke-linecap:butt;stroke-linejoin:miter;stroke-opacity:1"
       id="text274354">
      <path
         d="m -43.327324,214.52272 h 3.581835 q 1.244444,0 2.207535,0.46531 0.963092,0.46532 1.493333,1.32019 0.530242,0.85488 0.530242,2.00194 0,1.14705 -0.530242,2.00193 -0.530241,0.85488 -1.493333,1.32019 -0.963091,0.46532 -2.207535,0.46532 h -3.581835 z m 3.495265,5.86512 q 0.973912,0 1.55826,-0.55189 0.595169,-0.55188 0.595169,-1.52579 0,-0.97392 -0.595169,-1.5258 -0.584348,-0.55188 -1.55826,-0.55188 h -1.352657 v 4.15536 z"
         style="font-style:normal;font-variant:normal;font-weight:800;font-stretch:normal;font-family:Montserrat;-inkscape-font-specification:'Montserrat Ultra-Bold';letter-spacing:5.20985937px;fill:#ffffff;stroke-width:0.05636071px"
         id="path192571" />
      <path
         d="m -23.095706,220.44194 v 1.65566 h -6.081544 v -7.57488 h 5.940868 v 1.65565 h -3.819903 v 1.27691 h 3.36541 v 1.60154 h -3.36541 v 1.38512 z"
         style="font-style:normal;font-variant:normal;font-weight:800;font-stretch:normal;font-family:Montserrat;-inkscape-font-specification:'Montserrat Ultra-Bold';letter-spacing:5.20985937px;fill:#ffffff;stroke-width:0.05636071px"
         id="path192573" />
      <path
         d="m -3.2626811,220.6259 h -3.2030911 l -0.595169,1.4717 h -2.1858933 l 3.3437675,-7.57488 h 2.1101444 l 3.35458871,7.57488 H -2.6675122 Z m -0.6276327,-1.5799 -0.9739129,-2.42396 -0.9739128,2.42396 z"
         style="font-style:normal;font-variant:normal;font-weight:800;font-stretch:normal;font-family:Montserrat;-inkscape-font-specification:'Montserrat Ultra-Bold';letter-spacing:5.20985937px;fill:#ffffff;stroke-width:0.05636071px"
         id="path192575" />
      <path
         d="M 8.6796923,220.08484 H 7.5109969 v 2.01276 H 5.3683886 v -7.57488 h 3.4628013 q 1.0280191,0 1.7855071,0.34628 0.757487,0.33546 1.168695,0.97391 0.411208,0.62763 0.411208,1.48251 0,0.82242 -0.389565,1.43923 -0.378744,0.60599 -1.092947,0.95227 l 1.634009,2.38068 h -2.294105 z m 1.3526567,-2.75942 q 0,-0.53024 -0.3354588,-0.82241 -0.3354589,-0.29218 -0.9955554,-0.29218 H 7.5109969 v 2.21836 h 1.1903379 q 0.6600965,0 0.9955554,-0.28135 0.3354588,-0.29218 0.3354588,-0.82242 z"
         style="font-style:normal;font-variant:normal;font-weight:800;font-stretch:normal;font-family:Montserrat;-inkscape-font-specification:'Montserrat Ultra-Bold';letter-spacing:5.20985937px;fill:#ffffff;stroke-width:0.05636071px"
         id="path192577" />
      <path
         d="m 25.795467,214.52272 v 7.57488 h -1.763864 l -3.343768,-4.03633 v 4.03633 h -2.099323 v -7.57488 h 1.763864 l 3.343768,4.03633 v -4.03633 z"
         style="font-style:normal;font-variant:normal;font-weight:800;font-stretch:normal;font-family:Montserrat;-inkscape-font-specification:'Montserrat Ultra-Bold';letter-spacing:5.20985937px;fill:#ffffff;stroke-width:0.05636071px"
         id="path192579" />
      <path
         d="m 36.347139,222.24909 q -1.201159,0 -2.164251,-0.5086 -0.95227,-0.5086 -1.504154,-1.40676 -0.541063,-0.89816 -0.541063,-2.02357 0,-1.12541 0.541063,-2.02358 0.551884,-0.89816 1.504154,-1.40676 0.963092,-0.5086 2.164251,-0.5086 1.201159,0 2.15343,0.5086 0.963091,0.5086 1.504154,1.40676 0.551884,0.89817 0.551884,2.02358 0,1.12541 -0.551884,2.02357 -0.541063,0.89816 -1.504154,1.40676 -0.952271,0.5086 -2.15343,0.5086 z m 0,-1.77468 q 0.573526,0 1.03884,-0.27053 0.465314,-0.27054 0.735846,-0.75749 0.270531,-0.49778 0.270531,-1.13623 0,-0.63846 -0.270531,-1.12541 -0.270532,-0.49778 -0.735846,-0.76831 -0.465314,-0.27053 -1.03884,-0.27053 -0.573526,0 -1.03884,0.27053 -0.465314,0.27053 -0.735846,0.76831 -0.270531,0.48695 -0.270531,1.12541 0,0.63845 0.270531,1.13623 0.270532,0.48695 0.735846,0.75749 0.465314,0.27053 1.03884,0.27053 z"
         style="font-style:normal;font-variant:normal;font-weight:800;font-stretch:normal;font-family:Montserrat;-inkscape-font-specification:'Montserrat Ultra-Bold';letter-spacing:5.20985937px;fill:#ffffff;stroke-width:0.05636071px"
         id="path192581" />
      <path
         d="m 46.888664,214.52272 h 2.142608 v 5.87594 h 3.614299 v 1.69894 h -5.756907 z"
         style="font-style:normal;font-variant:normal;font-weight:800;font-stretch:normal;font-family:Montserrat;-inkscape-font-specification:'Montserrat Ultra-Bold';letter-spacing:5.20985937px;fill:#ffffff;stroke-width:0.05636071px"
         id="path192583" />
      <path
         d="m 58.692718,214.52272 h 3.581835 q 1.244444,0 2.207536,0.46531 0.963091,0.46532 1.493333,1.32019 0.530241,0.85488 0.530241,2.00194 0,1.14705 -0.530241,2.00193 -0.530242,0.85488 -1.493333,1.32019 -0.963092,0.46532 -2.207536,0.46532 h -3.581835 z m 3.495265,5.86512 q 0.973913,0 1.558261,-0.55189 0.595168,-0.55188 0.595168,-1.52579 0,-0.97392 -0.595168,-1.5258 -0.584348,-0.55188 -1.558261,-0.55188 h -1.352657 v 4.15536 z"
         style="font-style:normal;font-variant:normal;font-weight:800;font-stretch:normal;font-family:Montserrat;-inkscape-font-specification:'Montserrat Ultra-Bold';letter-spacing:5.20985937px;fill:#ffffff;stroke-width:0.05636071px"
         id="path192585" />
    </g>
    <g
       aria-label="Aplicações da Álgebra Linear:"
       style="font-style:normal;font-variant:normal;font-weight:300;font-stretch:normal;font-size:4.35208464px;line-height:125%;font-family:Montserrat;-inkscape-font-specification:'Montserrat Light';letter-spacing:0px;word-spacing:0px;fill:#ffffff;fill-opacity:1;stroke:none;stroke-width:0.0226671px;stroke-linecap:butt;stroke-linejoin:miter;stroke-opacity:1"
       id="text274358">
      <path
         d="m -41.377588,158.59445 -0.08704,-0.69633 h -0.992275 l -0.278534,0.69633 h -0.591883 l 1.349146,-3.00729 h 0.696334 l 0.500489,3.00729 z m -0.905234,-1.13154 h 0.765967 l -0.178435,-1.45795 z"
         style="font-style:italic;font-variant:normal;font-weight:500;font-stretch:normal;font-family:'Fira Sans';-inkscape-font-specification:'Fira Sans Medium Italic';letter-spacing:0px;fill:#ffffff;stroke-width:0.0226671px"
         id="path192588" />
      <path
         d="m -40.149348,156.2922 h 0.478729 l -0.0044,0.26983 q 0.31335,-0.33511 0.687629,-0.33511 0.335111,0 0.522251,0.23501 0.187139,0.23501 0.187139,0.66587 0,0.36557 -0.12621,0.71809 -0.121859,0.34817 -0.39604,0.58318 -0.274181,0.23066 -0.700686,0.23066 -0.217604,0 -0.426504,-0.0696 l -0.130562,0.89653 -0.548363,0.0653 z m 0.631052,1.94973 q 0.230661,0 0.382983,-0.17408 0.152323,-0.17408 0.221957,-0.43086 0.06963,-0.25677 0.06963,-0.51789 0,-0.47438 -0.33511,-0.47438 -0.143619,0 -0.26983,0.0783 -0.121858,0.0783 -0.243716,0.2176 l -0.169732,1.24034 q 0.174084,0.0609 0.343815,0.0609 z"
         style="font-style:italic;font-variant:normal;font-weight:500;font-stretch:normal;font-family:'Fira Sans';-inkscape-font-specification:'Fira Sans Medium Italic';letter-spacing:0px;fill:#ffffff;stroke-width:0.0226671px"
         id="path192590" />
      <path
         d="m -37.346266,158.05044 -0.0044,0.0479 q 0,0.0609 0.02611,0.0871 0.02611,0.0261 0.07834,0.0261 0.04352,0 0.130563,-0.0261 l 0.08269,0.39168 q -0.178435,0.0827 -0.382983,0.0827 -0.230661,0 -0.356871,-0.12186 -0.126211,-0.12621 -0.126211,-0.36557 0,-0.0914 0.0087,-0.14362 l 0.374279,-2.65912 0.557067,-0.0609 z"
         style="font-style:italic;font-variant:normal;font-weight:500;font-stretch:normal;font-family:'Fira Sans';-inkscape-font-specification:'Fira Sans Medium Italic';letter-spacing:0px;fill:#ffffff;stroke-width:0.0226671px"
         id="path192592" />
      <path
         d="m -35.826912,156.2922 -0.322055,2.30225 h -0.548362 l 0.322054,-2.30225 z m -0.18714,-0.49179 q -0.139267,0 -0.226308,-0.0827 -0.08704,-0.087 -0.08704,-0.2176 0,-0.16103 0.108802,-0.26548 0.108802,-0.1088 0.269829,-0.1088 0.139267,0 0.226309,0.087 0.08704,0.0827 0.08704,0.21761 0,0.15667 -0.108802,0.26547 -0.108802,0.10445 -0.269829,0.10445 z"
         style="font-style:italic;font-variant:normal;font-weight:500;font-stretch:normal;font-family:'Fira Sans';-inkscape-font-specification:'Fira Sans Medium Italic';letter-spacing:0px;fill:#ffffff;stroke-width:0.0226671px"
         id="path192594" />
      <path
         d="m -34.258666,156.22692 q 0.426505,0 0.705038,0.27418 l -0.278533,0.33076 q -0.100098,-0.0914 -0.200196,-0.12621 -0.100098,-0.0392 -0.221957,-0.0392 -0.352519,0 -0.509194,0.3264 -0.152323,0.32206 -0.152323,0.7268 0,0.25678 0.10445,0.37428 0.10445,0.11316 0.304646,0.11316 0.126211,0 0.235013,-0.0392 0.113154,-0.0435 0.256773,-0.13056 l 0.2089,0.36992 q -0.361223,0.25242 -0.761615,0.25242 -0.43956,0 -0.683277,-0.25677 -0.243717,-0.26112 -0.243717,-0.71374 0,-0.33076 0.130563,-0.66587 0.130562,-0.33946 0.409096,-0.56577 0.278533,-0.23066 0.696333,-0.23066 z"
         style="font-style:italic;font-variant:normal;font-weight:500;font-stretch:normal;font-family:'Fira Sans';-inkscape-font-specification:'Fira Sans Medium Italic';letter-spacing:0px;fill:#ffffff;stroke-width:0.0226671px"
         id="path192596" />
      <path
         d="m -32.255959,156.22692 q 0.452617,0 0.879121,0.22195 l -0.221956,1.54499 q -0.0087,0.0783 -0.0087,0.1001 0,0.074 0.02611,0.11751 0.03046,0.0435 0.10445,0.074 l -0.156675,0.36558 q -0.404744,-0.0435 -0.474377,-0.38298 -0.287238,0.39168 -0.687629,0.39168 -0.352519,0 -0.548363,-0.24371 -0.191492,-0.24372 -0.191492,-0.65717 0,-0.35687 0.130563,-0.70939 0.134914,-0.35252 0.422152,-0.58753 0.287238,-0.23501 0.726798,-0.23501 z m -0.0087,0.40909 q -0.239365,0 -0.39604,0.17409 -0.156675,0.16973 -0.23066,0.43085 -0.06963,0.25678 -0.06963,0.5179 0,0.47873 0.317703,0.47873 0.14797,0 0.269829,-0.0914 0.121858,-0.0957 0.252421,-0.27418 l 0.165379,-1.17507 q -0.139267,-0.0609 -0.308998,-0.0609 z"
         style="font-style:italic;font-variant:normal;font-weight:500;font-stretch:normal;font-family:'Fira Sans';-inkscape-font-specification:'Fira Sans Medium Italic';letter-spacing:0px;fill:#ffffff;stroke-width:0.0226671px"
         id="path192598" />
      <path
         d="m -29.360463,158.40731 q -0.317702,0.22196 -0.665869,0.24807 l -0.03046,0.16538 q 0.187139,0.0174 0.282885,0.11751 0.09575,0.10009 0.09575,0.25677 0,0.12621 -0.06963,0.23936 -0.06963,0.11751 -0.213252,0.18714 -0.143619,0.074 -0.352519,0.074 -0.261125,0 -0.439561,-0.13056 l 0.165379,-0.26548 q 0.117507,0.0696 0.265478,0.0696 0.100097,0 0.161027,-0.0435 0.06528,-0.0392 0.06963,-0.1175 0,-0.0871 -0.08269,-0.12186 -0.07834,-0.0305 -0.282885,-0.0305 l 0.10445,-0.4178 q -0.335111,-0.0653 -0.517898,-0.31335 -0.178436,-0.24807 -0.178436,-0.6354 0,-0.33076 0.130563,-0.66587 0.130562,-0.33946 0.409096,-0.56577 0.278533,-0.23066 0.696333,-0.23066 0.426505,0 0.705038,0.27418 l -0.278533,0.33076 q -0.100098,-0.0914 -0.200196,-0.12621 -0.100098,-0.0392 -0.221956,-0.0392 -0.352519,0 -0.509194,0.3264 -0.152323,0.32206 -0.152323,0.7268 0,0.25678 0.10445,0.37428 0.10445,0.11316 0.304646,0.11316 0.12621,0 0.235012,-0.0392 0.113154,-0.0435 0.256773,-0.13056 z"
         style="font-style:italic;font-variant:normal;font-weight:500;font-stretch:normal;font-family:'Fira Sans';-inkscape-font-specification:'Fira Sans Medium Italic';letter-spacing:0px;fill:#ffffff;stroke-width:0.0226671px"
         id="path192600" />
      <path
         d="m -28.154187,158.65973 q -0.443913,0 -0.68763,-0.25677 -0.239364,-0.25677 -0.239364,-0.71374 0,-0.33946 0.121858,-0.67457 0.12621,-0.33512 0.404744,-0.56142 0.278533,-0.22631 0.713742,-0.22631 0.443912,0 0.683277,0.26112 0.243717,0.25678 0.243717,0.70504 0,0.33946 -0.121859,0.67457 -0.121858,0.33511 -0.400391,0.56577 -0.278534,0.22631 -0.718094,0.22631 z m 0.03046,-0.42215 q 0.239365,0 0.382984,-0.17843 0.143618,-0.18279 0.200196,-0.43521 0.05658,-0.25242 0.05658,-0.49179 0,-0.48308 -0.387336,-0.48308 -0.239364,0 -0.382983,0.17844 -0.143619,0.17408 -0.204548,0.42215 -0.05658,0.24807 -0.05658,0.48308 0,0.50484 0.391687,0.50484 z m 0.617996,-2.44587 q -0.09139,0 -0.161027,-0.0305 -0.06528,-0.0348 -0.147971,-0.0957 -0.03917,-0.0305 -0.08269,-0.0522 -0.04352,-0.0261 -0.08269,-0.0261 -0.07834,0 -0.139267,0.0522 -0.05658,0.0479 -0.130562,0.15232 l -0.274182,-0.16103 q 0.108803,-0.20019 0.252421,-0.32205 0.147971,-0.12621 0.31335,-0.12621 0.09575,0 0.161028,0.0348 0.06963,0.0305 0.143618,0.0871 0.05222,0.0392 0.08704,0.0609 0.03482,0.0174 0.07399,0.0174 0.06963,0 0.130562,-0.0479 0.06093,-0.0479 0.130563,-0.14797 l 0.282885,0.16103 q -0.117506,0.2089 -0.261125,0.3264 -0.143619,0.11751 -0.295942,0.11751 z"
         style="font-style:italic;font-variant:normal;font-weight:500;font-stretch:normal;font-family:'Fira Sans';-inkscape-font-specification:'Fira Sans Medium Italic';letter-spacing:0px;fill:#ffffff;stroke-width:0.0226671px"
         id="path192602" />
      <path
         d="m -24.528153,156.83621 q 0,0.44391 -0.404744,0.64411 -0.404744,0.20019 -1.083669,0.26983 0.01741,0.47873 0.448265,0.47873 0.156675,0 0.300293,-0.0479 0.143619,-0.0522 0.300294,-0.16538 l 0.213252,0.34817 q -0.4178,0.29594 -0.874769,0.29594 -0.461321,0 -0.705037,-0.25242 -0.243717,-0.25677 -0.243717,-0.70504 0,-0.34816 0.12621,-0.68327 0.130563,-0.33947 0.409096,-0.56577 0.282886,-0.22631 0.718094,-0.22631 0.252421,0 0.430857,0.0827 0.182787,0.0827 0.274181,0.22195 0.09139,0.13927 0.09139,0.30465 z m -1.462301,0.54401 q 0.461321,-0.0435 0.678926,-0.16973 0.217604,-0.13056 0.217604,-0.35252 0,-0.0914 -0.06093,-0.16103 -0.06093,-0.074 -0.200196,-0.074 -0.274182,0 -0.430857,0.2176 -0.152323,0.21761 -0.204548,0.53966 z"
         style="font-style:italic;font-variant:normal;font-weight:500;font-stretch:normal;font-family:'Fira Sans';-inkscape-font-specification:'Fira Sans Medium Italic';letter-spacing:0px;fill:#ffffff;stroke-width:0.0226671px"
         id="path192604" />
      <path
         d="m -23.294813,156.22692 q 0.470025,0 0.805136,0.29159 l -0.252421,0.309 q -0.261125,-0.18714 -0.552715,-0.18714 -0.178435,0 -0.278533,0.0653 -0.09575,0.0653 -0.09575,0.17843 0,0.10445 0.09139,0.16538 0.09139,0.0566 0.361223,0.14362 0.317702,0.1001 0.470025,0.26548 0.152323,0.16102 0.152323,0.4265 0,0.23066 -0.126211,0.4091 -0.121858,0.17408 -0.348167,0.26983 -0.226308,0.0957 -0.526602,0.0957 -0.287237,0 -0.52225,-0.10009 -0.23066,-0.1001 -0.382983,-0.25678 l 0.287237,-0.30029 q 0.278534,0.23936 0.631052,0.23936 0.217605,0 0.322055,-0.087 0.108802,-0.0914 0.108802,-0.2089 0,-0.0914 -0.04352,-0.14797 -0.03917,-0.0609 -0.134915,-0.10445 -0.09574,-0.0479 -0.291589,-0.11315 -0.317702,-0.1001 -0.461321,-0.25242 -0.139267,-0.15668 -0.139267,-0.4004 0,-0.18278 0.10445,-0.34381 0.108802,-0.16103 0.317702,-0.25677 0.2089,-0.1001 0.504842,-0.1001 z"
         style="font-style:italic;font-variant:normal;font-weight:500;font-stretch:normal;font-family:'Fira Sans';-inkscape-font-specification:'Fira Sans Medium Italic';letter-spacing:0px;fill:#ffffff;stroke-width:0.0226671px"
         id="path192606" />
      <path
         d="m -18.851606,155.37391 -0.452617,3.22054 h -0.483081 l 0.0044,-0.35252 q -0.274181,0.4178 -0.691981,0.4178 -0.352519,0 -0.539659,-0.24371 -0.18714,-0.24807 -0.18714,-0.67893 0,-0.33946 0.113155,-0.68763 0.117506,-0.34816 0.361223,-0.58318 0.248069,-0.23936 0.617996,-0.23936 0.339462,0 0.552714,0.25242 l 0.16538,-1.16201 z m -1.144598,1.27081 q -0.226308,0 -0.369927,0.17843 -0.139267,0.17844 -0.200196,0.43521 -0.06093,0.25242 -0.06093,0.49614 0,0.48308 0.31335,0.48308 0.165379,0 0.300294,-0.12186 0.134914,-0.12186 0.278533,-0.34816 l 0.12621,-0.90524 q -0.07834,-0.1088 -0.174083,-0.16102 -0.09139,-0.0566 -0.213252,-0.0566 z"
         style="font-style:italic;font-variant:normal;font-weight:500;font-stretch:normal;font-family:'Fira Sans';-inkscape-font-specification:'Fira Sans Medium Italic';letter-spacing:0px;fill:#ffffff;stroke-width:0.0226671px"
         id="path192608" />
      <path
         d="m -17.37217,156.22692 q 0.452617,0 0.879121,0.22195 l -0.221956,1.54499 q -0.0087,0.0783 -0.0087,0.1001 0,0.074 0.02611,0.11751 0.03046,0.0435 0.10445,0.074 l -0.156675,0.36558 q -0.404744,-0.0435 -0.474377,-0.38298 -0.287238,0.39168 -0.687629,0.39168 -0.352519,0 -0.548363,-0.24371 -0.191492,-0.24372 -0.191492,-0.65717 0,-0.35687 0.130563,-0.70939 0.134914,-0.35252 0.422152,-0.58753 0.287238,-0.23501 0.726798,-0.23501 z m -0.0087,0.40909 q -0.239365,0 -0.39604,0.17409 -0.156675,0.16973 -0.23066,0.43085 -0.06963,0.25678 -0.06963,0.5179 0,0.47873 0.317703,0.47873 0.147971,0 0.269829,-0.0914 0.121858,-0.0957 0.252421,-0.27418 l 0.165379,-1.17507 q -0.139267,-0.0609 -0.308998,-0.0609 z"
         style="font-style:italic;font-variant:normal;font-weight:500;font-stretch:normal;font-family:'Fira Sans';-inkscape-font-specification:'Fira Sans Medium Italic';letter-spacing:0px;fill:#ffffff;stroke-width:0.0226671px"
         id="path192610" />
      <path
         d="m -13.514046,158.59445 -0.08704,-0.69633 h -0.992276 l -0.278533,0.69633 h -0.591884 l 1.349147,-3.00729 h 0.696333 l 0.50049,3.00729 z m -0.905233,-1.13154 h 0.765967 l -0.178436,-1.45795 z m 1.14895,-2.92025 0.174083,0.43521 -1.018387,0.34817 -0.117507,-0.28289 z"
         style="font-style:italic;font-variant:normal;font-weight:500;font-stretch:normal;font-family:'Fira Sans';-inkscape-font-specification:'Fira Sans Medium Italic';letter-spacing:0px;fill:#ffffff;stroke-width:0.0226671px"
         id="path192612" />
      <path
         d="m -12.007273,158.05044 -0.0044,0.0479 q 0,0.0609 0.02611,0.0871 0.02611,0.0261 0.07834,0.0261 0.04352,0 0.130563,-0.0261 l 0.08269,0.39168 q -0.178435,0.0827 -0.382983,0.0827 -0.230661,0 -0.356871,-0.12186 -0.12621,-0.12621 -0.12621,-0.36557 0,-0.0914 0.0087,-0.14362 l 0.374279,-2.65912 0.557067,-0.0609 z"
         style="font-style:italic;font-variant:normal;font-weight:500;font-stretch:normal;font-family:'Fira Sans';-inkscape-font-specification:'Fira Sans Medium Italic';letter-spacing:0px;fill:#ffffff;stroke-width:0.0226671px"
         id="path192614" />
      <path
         d="m -10.091267,156.22692 q 0.4656726,0 0.8834727,0.22195 l -0.3002938,2.02372 q -0.08269,0.57448 -0.3655751,0.8269 -0.2785338,0.25242 -0.7746708,0.25242 -0.204548,0 -0.430857,-0.0653 -0.221956,-0.0653 -0.400391,-0.17408 l 0.191491,-0.38734 q 0.143619,0.0827 0.304646,0.13056 0.165379,0.0522 0.322054,0.0522 0.243717,0 0.404744,-0.12186 0.161027,-0.11751 0.2089,-0.46132 l 0.03482,-0.25242 q -0.12621,0.14797 -0.287238,0.23501 -0.161027,0.087 -0.343814,0.087 -0.352519,0 -0.548363,-0.23936 -0.195844,-0.23937 -0.195844,-0.63976 0,-0.36122 0.134915,-0.70068 0.134915,-0.33947 0.426504,-0.56142 0.29159,-0.22631 0.735503,-0.22631 z m -0.0087,0.40909 q -0.243716,0 -0.404743,0.16103 -0.161028,0.16103 -0.235013,0.40474 -0.07399,0.24372 -0.07399,0.50485 0,0.24371 0.08704,0.35687 0.08704,0.1088 0.239365,0.1088 0.147971,0 0.274181,-0.0958 0.130563,-0.10009 0.2567732,-0.27418 l 0.1740834,-1.10543 q -0.08269,-0.0348 -0.1566751,-0.0479 -0.069634,-0.0131 -0.1610275,-0.0131 z"
         style="font-style:italic;font-variant:normal;font-weight:500;font-stretch:normal;font-family:'Fira Sans';-inkscape-font-specification:'Fira Sans Medium Italic';letter-spacing:0px;fill:#ffffff;stroke-width:0.0226671px"
         id="path192616" />
      <path
         d="m -6.8223065,156.83621 q 0,0.44391 -0.4047438,0.64411 -0.4047439,0.20019 -1.0836691,0.26983 0.017408,0.47873 0.4482647,0.47873 0.1566751,0 0.3002938,-0.0479 0.1436188,-0.0522 0.3002939,-0.16538 l 0.2132521,0.34817 q -0.4178001,0.29594 -0.874769,0.29594 -0.461321,0 -0.7050377,-0.25242 -0.2437167,-0.25677 -0.2437167,-0.70504 0,-0.34816 0.1262104,-0.68327 0.1305626,-0.33947 0.409096,-0.56577 0.2828855,-0.22631 0.7180939,-0.22631 0.252421,0 0.4308564,0.0827 0.1827876,0.0827 0.2741814,0.22195 0.091394,0.13927 0.091394,0.30465 z m -1.4623004,0.54401 q 0.461321,-0.0435 0.6789252,-0.16973 0.2176042,-0.13056 0.2176042,-0.35252 0,-0.0914 -0.060929,-0.16103 -0.060929,-0.074 -0.2001958,-0.074 -0.2741814,0 -0.4308564,0.2176 -0.152323,0.21761 -0.204548,0.53966 z"
         style="font-style:italic;font-variant:normal;font-weight:500;font-stretch:normal;font-family:'Fira Sans';-inkscape-font-specification:'Fira Sans Medium Italic';letter-spacing:0px;fill:#ffffff;stroke-width:0.0226671px"
         id="path192618" />
      <path
         d="m -5.0928285,156.22692 q 0.3351105,0 0.5178981,0.23501 0.1871396,0.23501 0.1871396,0.66587 0,0.36993 -0.1262104,0.71809 -0.1218584,0.34817 -0.4134481,0.58318 -0.2915897,0.23066 -0.7572627,0.23066 -0.2219563,0 -0.4308564,-0.0435 -0.204548,-0.0392 -0.4526168,-0.13056 l 0.4395606,-3.11609 0.5527147,-0.0609 -0.1653792,1.19247 q 0.2959417,-0.27418 0.6484606,-0.27418 z m -0.1958438,0.4178 q -0.1436188,0 -0.2654772,0.0783 -0.1218583,0.0783 -0.2480688,0.2176 l -0.1697313,1.24034 q 0.1740834,0.0609 0.3394626,0.0609 0.2306605,0 0.3829835,-0.17408 0.1523229,-0.17408 0.2219563,-0.43086 0.069633,-0.25677 0.069633,-0.51789 0,-0.47438 -0.3307584,-0.47438 z"
         style="font-style:italic;font-variant:normal;font-weight:500;font-stretch:normal;font-family:'Fira Sans';-inkscape-font-specification:'Fira Sans Medium Italic';letter-spacing:0px;fill:#ffffff;stroke-width:0.0226671px"
         id="path192620" />
      <path
         d="m -2.6161539,156.23127 q 0.1131542,0 0.2306605,0.0348 l -0.1610271,0.5353 q -0.10445,-0.0261 -0.1914917,-0.0261 -0.204548,0 -0.3481668,0.17408 -0.1436188,0.17409 -0.2611251,0.5092 l -0.1610271,1.13589 h -0.5483627 l 0.3220543,-2.30225 h 0.4743772 l -0.017408,0.44826 q 0.1262104,-0.25242 0.2959417,-0.37863 0.1697313,-0.13056 0.3655751,-0.13056 z"
         style="font-style:italic;font-variant:normal;font-weight:500;font-stretch:normal;font-family:'Fira Sans';-inkscape-font-specification:'Fira Sans Medium Italic';letter-spacing:0px;fill:#ffffff;stroke-width:0.0226671px"
         id="path192622" />
      <path
         d="m -1.2303546,156.22692 q 0.45261679,0 0.87912109,0.22195 l -0.22195632,1.54499 q -0.008704,0.0783 -0.008704,0.1001 0,0.074 0.0261125,0.11751 0.0304646,0.0435 0.10445003,0.074 l -0.15667505,0.36558 q -0.40474389,-0.0435 -0.47437719,-0.38298 -0.2872376,0.39168 -0.6876294,0.39168 -0.3525189,0 -0.5483627,-0.24371 -0.1914917,-0.24372 -0.1914917,-0.65717 0,-0.35687 0.1305625,-0.70939 0.1349147,-0.35252 0.4221523,-0.58753 0.2872375,-0.23501 0.7267981,-0.23501 z m -0.0087,0.40909 q -0.2393646,0 -0.3960397,0.17409 -0.156675,0.16973 -0.2306605,0.43085 -0.069633,0.25678 -0.069633,0.5179 0,0.47873 0.3177022,0.47873 0.1479708,0 0.2698292,-0.0914 0.1218584,-0.0957 0.2524209,-0.27418 l 0.16537923,-1.17507 q -0.13926673,-0.0609 -0.30899803,-0.0609 z"
         style="font-style:italic;font-variant:normal;font-weight:500;font-stretch:normal;font-family:'Fira Sans';-inkscape-font-specification:'Fira Sans Medium Italic';letter-spacing:0px;fill:#ffffff;stroke-width:0.0226671px"
         id="path192624" />
      <path
         d="m 2.0445883,155.58716 -0.356871,2.53727 h 1.1837671 l -0.1262105,0.47002 H 1.052313 l 0.4221522,-3.00729 z"
         style="font-style:italic;font-variant:normal;font-weight:500;font-stretch:normal;font-family:'Fira Sans';-inkscape-font-specification:'Fira Sans Medium Italic';letter-spacing:0px;fill:#ffffff;stroke-width:0.0226671px"
         id="path192626" />
      <path
         d="m 4.0728631,156.2922 -0.3220543,2.30225 H 3.2024461 l 0.3220543,-2.30225 z m -0.1871397,-0.49179 q -0.1392667,0 -0.2263084,-0.0827 -0.087042,-0.087 -0.087042,-0.2176 0,-0.16103 0.1088022,-0.26548 0.1088021,-0.1088 0.2698292,-0.1088 0.1392667,0 0.2263084,0.087 0.087042,0.0827 0.087042,0.21761 0,0.15667 -0.1088021,0.26547 -0.1088021,0.10445 -0.2698293,0.10445 z"
         style="font-style:italic;font-variant:normal;font-weight:500;font-stretch:normal;font-family:'Fira Sans';-inkscape-font-specification:'Fira Sans Medium Italic';letter-spacing:0px;fill:#ffffff;stroke-width:0.0226671px"
         id="path192628" />
      <path
         d="m 5.9762202,156.22692 q 0.2480689,0 0.3873356,0.15232 0.1436188,0.14797 0.1436188,0.41345 0,0.0696 -0.013056,0.15667 l -0.2306605,1.64509 H 5.7150952 l 0.2219563,-1.5624 q 0.0087,-0.0783 0.0087,-0.1088 0,-0.13056 -0.052225,-0.18279 -0.052225,-0.0566 -0.1436188,-0.0566 -0.2959417,0 -0.6049397,0.59188 l -0.1871397,1.31868 H 4.4094698 L 4.731524,156.2922 h 0.4743773 l -0.021761,0.4265 q 0.3394626,-0.49178 0.7920794,-0.49178 z"
         style="font-style:italic;font-variant:normal;font-weight:500;font-stretch:normal;font-family:'Fira Sans';-inkscape-font-specification:'Fira Sans Medium Italic';letter-spacing:0px;fill:#ffffff;stroke-width:0.0226671px"
         id="path192630" />
      <path
         d="m 8.9455005,156.83621 q 0,0.44391 -0.4047438,0.64411 -0.4047439,0.20019 -1.0836691,0.26983 0.017408,0.47873 0.4482647,0.47873 0.1566751,0 0.3002939,-0.0479 0.1436187,-0.0522 0.3002938,-0.16538 l 0.2132521,0.34817 q -0.4178001,0.29594 -0.874769,0.29594 -0.4613209,0 -0.7050377,-0.25242 -0.2437167,-0.25677 -0.2437167,-0.70504 0,-0.34816 0.1262104,-0.68327 0.1305626,-0.33947 0.409096,-0.56577 0.2828855,-0.22631 0.718094,-0.22631 0.2524209,0 0.4308563,0.0827 0.1827876,0.0827 0.2741814,0.22195 0.091394,0.13927 0.091394,0.30465 z m -1.4623004,0.54401 q 0.461321,-0.0435 0.6789252,-0.16973 0.2176042,-0.13056 0.2176042,-0.35252 0,-0.0914 -0.060929,-0.16103 -0.060929,-0.074 -0.2001959,-0.074 -0.2741814,0 -0.4308564,0.2176 -0.152323,0.21761 -0.204548,0.53966 z"
         style="font-style:italic;font-variant:normal;font-weight:500;font-stretch:normal;font-family:'Fira Sans';-inkscape-font-specification:'Fira Sans Medium Italic';letter-spacing:0px;fill:#ffffff;stroke-width:0.0226671px"
         id="path192632" />
      <path
         d="m 10.42337,156.22692 q 0.452617,0 0.879121,0.22195 l -0.221956,1.54499 q -0.0087,0.0783 -0.0087,0.1001 0,0.074 0.02611,0.11751 0.03046,0.0435 0.10445,0.074 l -0.156675,0.36558 q -0.404744,-0.0435 -0.474377,-0.38298 -0.287238,0.39168 -0.6876294,0.39168 -0.3525189,0 -0.5483627,-0.24371 -0.1914917,-0.24372 -0.1914917,-0.65717 0,-0.35687 0.1305625,-0.70939 0.1349146,-0.35252 0.4221522,-0.58753 0.2872376,-0.23501 0.7267981,-0.23501 z m -0.0087,0.40909 q -0.239365,0 -0.39604,0.17409 -0.1566749,0.16973 -0.2306603,0.43085 -0.069633,0.25678 -0.069633,0.5179 0,0.47873 0.3177026,0.47873 0.14797,0 0.269829,-0.0914 0.121858,-0.0957 0.252421,-0.27418 l 0.165379,-1.17507 q -0.139267,-0.0609 -0.308998,-0.0609 z"
         style="font-style:italic;font-variant:normal;font-weight:500;font-stretch:normal;font-family:'Fira Sans';-inkscape-font-specification:'Fira Sans Medium Italic';letter-spacing:0px;fill:#ffffff;stroke-width:0.0226671px"
         id="path192634" />
      <path
         d="m 13.075149,156.23127 q 0.113155,0 0.230661,0.0348 l -0.161027,0.5353 q -0.10445,-0.0261 -0.191492,-0.0261 -0.204548,0 -0.348167,0.17408 -0.143619,0.17409 -0.261125,0.5092 l -0.161027,1.13589 h -0.548363 l 0.322055,-2.30225 h 0.474377 l -0.01741,0.44826 q 0.12621,-0.25242 0.295941,-0.37863 0.169732,-0.13056 0.365575,-0.13056 z"
         style="font-style:italic;font-variant:normal;font-weight:500;font-stretch:normal;font-family:'Fira Sans';-inkscape-font-specification:'Fira Sans Medium Italic';letter-spacing:0px;fill:#ffffff;stroke-width:0.0226671px"
         id="path192636" />
      <path
         d="m 13.55599,158.65973 q -0.134915,0 -0.226309,-0.0914 -0.08704,-0.0914 -0.08704,-0.22631 0,-0.16103 0.108803,-0.27418 0.113154,-0.11315 0.274181,-0.11315 0.139267,0 0.226308,0.0914 0.08704,0.087 0.08704,0.22196 0,0.16102 -0.113154,0.27853 -0.108802,0.11315 -0.269829,0.11315 z m 0.217604,-1.54934 q -0.134915,0 -0.226309,-0.0914 -0.08704,-0.0914 -0.08704,-0.22631 0,-0.16103 0.108802,-0.27418 0.113154,-0.11316 0.274181,-0.11316 0.139267,0 0.226309,0.0914 0.08704,0.087 0.08704,0.22195 0,0.16103 -0.113154,0.27854 -0.108802,0.11315 -0.269829,0.11315 z"
         style="font-style:italic;font-variant:normal;font-weight:500;font-stretch:normal;font-family:'Fira Sans';-inkscape-font-specification:'Fira Sans Medium Italic';letter-spacing:0px;fill:#ffffff;stroke-width:0.0226671px"
         id="path192638" />
    </g>
    <g
       style="fill:#5952b2;fill-opacity:1"
       transform="matrix(0.33007956,0,0,0.33007956,-120.95995,150.34543)"
       id="g876">
      <g
         style="fill:#5952b2;fill-opacity:1"
         id="g819">
        <g
           style="fill:#5952b2;fill-opacity:1"
           id="g817">
          <path
             style="fill:#5952b2;fill-opacity:1"
             d="m 197.023,225.545 c -1.145,-9.533 -11.68,-10.614 -17.805,-9.958 -6.521,-24.554 16.225,-61.151 17.563,-69.82 1.438,-9.312 -6.658,-63.5 -7.513,-90.938 C 188.389,26.662 147.48,-4.433 140.65,0.524 c -6.768,7.484 9.748,17.585 1.054,26.245 -8.398,8.367 -10.588,13.99 -16.824,23.46 -15.976,24.255 27.318,24.558 27.318,24.558 0,0 -33.882,25.112 -41.421,37.768 -6.943,11.656 -9.854,24.696 -18.232,35.688 -19.094,25.051 -14.791,68.729 -14.791,68.729 0,0 -36.17,-11.839 -16.264,-53.133 C 76.643,132.406 84.107,86.02 50.016,97.95 c -13.189,4.616 2.949,14.325 5.734,17.435 9.318,10.4 1.441,27.896 -4.174,38.012 -15.037,27.091 -20.496,55.475 11.154,72.978 14.063,7.776 33.055,9.7 52.17,9.982 l 48.64,0.14 c 16.024,0.797 34.149,-2.199 33.483,-10.952 z"
             id="path815" />
        </g>
      </g>
      <g
         style="fill:#5952b2;fill-opacity:1"
         id="g821" />
      <g
         style="fill:#5952b2;fill-opacity:1"
         id="g823" />
      <g
         style="fill:#5952b2;fill-opacity:1"
         id="g825" />
      <g
         style="fill:#5952b2;fill-opacity:1"
         id="g827" />
      <g
         style="fill:#5952b2;fill-opacity:1"
         id="g829" />
      <g
         style="fill:#5952b2;fill-opacity:1"
         id="g831" />
      <g
         style="fill:#5952b2;fill-opacity:1"
         id="g833" />
      <g
         style="fill:#5952b2;fill-opacity:1"
         id="g835" />
      <g
         style="fill:#5952b2;fill-opacity:1"
         id="g837" />
      <g
         style="fill:#5952b2;fill-opacity:1"
         id="g839" />
      <g
         style="fill:#5952b2;fill-opacity:1"
         id="g841" />
      <g
         style="fill:#5952b2;fill-opacity:1"
         id="g843" />
      <g
         style="fill:#5952b2;fill-opacity:1"
         id="g845" />
      <g
         style="fill:#5952b2;fill-opacity:1"
         id="g847" />
      <g
         style="fill:#5952b2;fill-opacity:1"
         id="g849" />
    </g>
    <path
       id="path304581"
       d="m -27.837111,193.18254 v 6.36133 l 6.398952,-6.36133 z"
       style="fill:#5952b2;fill-opacity:1;fill-rule:evenodd;stroke:none;stroke-width:0.53378224px;stroke-linecap:butt;stroke-linejoin:miter;stroke-opacity:1" />
    <path
       id="path304585"
       d="m 35.681737,178.52546 -5.974139,5.78131 h 5.974139 z"
       style="fill:#5952b2;fill-opacity:1;fill-rule:evenodd;stroke:none;stroke-width:0.54071426px;stroke-linecap:butt;stroke-linejoin:miter;stroke-opacity:1" />
  </g>
</svg>
