<?xml version="1.0" encoding="UTF-8" standalone="no"?>
<svg
   xmlns:dc="http://purl.org/dc/elements/1.1/"
   xmlns:cc="http://creativecommons.org/ns#"
   xmlns:rdf="http://www.w3.org/1999/02/22-rdf-syntax-ns#"
   xmlns:svg="http://www.w3.org/2000/svg"
   xmlns="http://www.w3.org/2000/svg"
   id="svg34753"
   version="1.1"
   viewBox="0 0 175.94557 78.10376"
   height="78.10376mm"
   width="175.94557mm">
  <defs
     id="defs34747" />
  <metadata
     id="metadata34750">
    <rdf:RDF>
      <cc:Work
         rdf:about="">
        <dc:format>image/svg+xml</dc:format>
        <dc:type
           rdf:resource="http://purl.org/dc/dcmitype/StillImage" />
        <dc:title></dc:title>
      </cc:Work>
    </rdf:RDF>
  </metadata>
  <g
     transform="translate(107.89558,-150.34523)"
     id="layer1">
    <g
       id="text274338"
       style="font-style:normal;font-variant:normal;font-weight:normal;font-stretch:normal;font-size:21.43116951px;line-height:125%;font-family:Montserrat;-inkscape-font-specification:Montserrat;letter-spacing:0px;word-spacing:0px;fill:#ffffff;fill-opacity:1;stroke:none;stroke-width:0.11162066px;stroke-linecap:butt;stroke-linejoin:miter;stroke-opacity:1"
       aria-label="GATO"
       transform="matrix(2.0174449,0,0,2.0174449,-139.85691,-335.82799)">
      <path
         id="path304572"
         style="font-style:normal;font-variant:normal;font-weight:bold;font-stretch:normal;font-family:Montserrat;-inkscape-font-specification:'Montserrat Bold';letter-spacing:-1.0045861px;fill:#ffffff;stroke-width:0.11162066px"
         d="m 55.525582,262.21809 h 3.171813 v 6.08645 q -1.221576,0.92154 -2.828914,1.41446 -1.607338,0.49292 -3.236107,0.49292 -2.335997,0 -4.200509,-0.98584 -1.864512,-1.00726 -2.93607,-2.76462 -1.050128,-1.77879 -1.050128,-4.00763 0,-2.22884 1.050128,-3.98619 1.071558,-1.77879 2.957501,-2.76463 1.885943,-1.00726 4.243372,-1.00726 1.971667,0 3.579005,0.66437 1.607338,0.66436 2.700327,1.9288 l -2.228841,2.05739 q -1.607338,-1.69306 -3.879042,-1.69306 -1.435888,0 -2.550309,0.60007 -1.114421,0.60008 -1.735925,1.69307 -0.621504,1.09299 -0.621504,2.50744 0,1.39303 0.621504,2.48602 0.621504,1.09299 1.714494,1.71449 1.114421,0.60008 2.528878,0.60008 1.500182,0 2.700327,-0.64294 z" />
      <path
         id="path304574"
         style="font-style:normal;font-variant:normal;font-weight:bold;font-stretch:normal;font-family:Montserrat;-inkscape-font-specification:'Montserrat Bold';letter-spacing:-1.0045861px;fill:#ffffff;stroke-width:0.11162066px"
         d="m 70.797633,266.74007 h -6.96513 l -1.328732,3.21467 h -3.557574 l 6.686525,-15.00182 h 3.428987 l 6.707956,15.00182 h -3.643299 z m -1.092989,-2.63604 -2.37886,-5.74355 -2.37886,5.74355 z" />
      <path
         id="path304576"
         style="font-style:normal;font-variant:normal;font-weight:bold;font-stretch:normal;font-family:Montserrat;-inkscape-font-specification:'Montserrat Bold';letter-spacing:-1.0045861px;fill:#ffffff;stroke-width:0.11162066px"
         d="m 78.675598,257.78184 h -4.800582 v -2.82892 h 13.073013 v 2.82892 h -4.800582 v 12.1729 h -3.471849 z" />
      <path
         id="path304578"
         style="font-style:normal;font-variant:normal;font-weight:bold;font-stretch:normal;font-family:Montserrat;-inkscape-font-specification:'Montserrat Bold';letter-spacing:-1.0045861px;fill:#ffffff;stroke-width:0.11162066px"
         d="m 94.846421,270.21192 q -2.335998,0 -4.221941,-1.00727 -1.864511,-1.00726 -2.93607,-2.76462 -1.050127,-1.77879 -1.050127,-3.9862 0,-2.20741 1.050127,-3.96476 1.071559,-1.77879 2.93607,-2.78606 1.885943,-1.00726 4.221941,-1.00726 2.335997,0 4.200509,1.00726 1.86451,1.00727 2.93607,2.78606 1.07156,1.75735 1.07156,3.96476 0,2.20741 -1.07156,3.9862 -1.07156,1.75736 -2.93607,2.76462 -1.864512,1.00727 -4.200509,1.00727 z m 0,-2.9575 q 1.328732,0 2.400291,-0.60008 1.071558,-0.6215 1.671631,-1.71449 0.621504,-1.09299 0.621504,-2.48602 0,-1.39302 -0.621504,-2.48601 -0.600073,-1.09299 -1.671631,-1.69306 -1.071559,-0.62151 -2.400291,-0.62151 -1.328733,0 -2.400291,0.62151 -1.071559,0.60007 -1.693062,1.69306 -0.600073,1.09299 -0.600073,2.48601 0,1.39303 0.600073,2.48602 0.621503,1.09299 1.693062,1.71449 1.071558,0.60008 2.400291,0.60008 z" />
    </g>
    <text
       id="text274350"
       y="172.88622"
       x="-44.099373"
       style="font-style:normal;font-variant:normal;font-weight:300;font-stretch:normal;font-size:7.35307932px;line-height:125%;font-family:Montserrat;-inkscape-font-specification:'Montserrat Light';letter-spacing:0px;word-spacing:0px;fill:#ffffff;fill-opacity:1;stroke:none;stroke-width:0.03829728px;stroke-linecap:butt;stroke-linejoin:miter;stroke-opacity:1"
       xml:space="preserve"><tspan
         id="tspan274348"
         style="font-style:normal;font-variant:normal;font-weight:500;font-stretch:normal;font-family:Montserrat;-inkscape-font-specification:'Montserrat Medium';letter-spacing:3.5401175px;fill:#ffffff;stroke-width:0.03829728px"
         y="172.88622"
         x="-44.099373">MAPA DO</tspan></text>
    <text
       xml:space="preserve"
       style="font-style:normal;font-variant:normal;font-weight:300;font-stretch:normal;font-size:10.82125378px;line-height:125%;font-family:Montserrat;-inkscape-font-specification:'Montserrat Light';letter-spacing:0px;word-spacing:0px;fill:#ffffff;fill-opacity:1;stroke:none;stroke-width:0.05636071px;stroke-linecap:butt;stroke-linejoin:miter;stroke-opacity:1"
       x="-44.084812"
       y="222.0976"
       id="text274354"><tspan
         x="-44.084812"
         y="222.0976"
         style="font-style:normal;font-variant:normal;font-weight:800;font-stretch:normal;font-family:Montserrat;-inkscape-font-specification:'Montserrat Ultra-Bold';letter-spacing:5.20985937px;fill:#ffffff;stroke-width:0.05636071px"
         id="tspan274352">DE ARNOLD</tspan></text>
    <text
       xml:space="preserve"
       style="font-style:normal;font-variant:normal;font-weight:300;font-stretch:normal;font-size:4.35208464px;line-height:125%;font-family:Montserrat;-inkscape-font-specification:'Montserrat Light';letter-spacing:0px;word-spacing:0px;fill:#ffffff;fill-opacity:1;stroke:none;stroke-width:0.0226671px;stroke-linecap:butt;stroke-linejoin:miter;stroke-opacity:1"
       x="-43.140182"
       y="158.59445"
       id="text274358"><tspan
         x="-43.140182"
         y="158.59445"
         style="font-style:italic;font-variant:normal;font-weight:500;font-stretch:normal;font-family:'Fira Sans';-inkscape-font-specification:'Fira Sans Medium Italic';letter-spacing:0px;fill:#ffffff;stroke-width:0.0226671px"
         id="tspan274356">Aplicações da Álgebra Linear:</tspan></text>
    <g
       style="fill:#5952b2;fill-opacity:1"
       transform="matrix(0.33007956,0,0,0.33007956,-120.95995,150.34543)"
       id="g876">
      <g
         style="fill:#5952b2;fill-opacity:1"
         id="g819">
        <g
           style="fill:#5952b2;fill-opacity:1"
           id="g817">
          <path
             style="fill:#5952b2;fill-opacity:1"
             d="m 197.023,225.545 c -1.145,-9.533 -11.68,-10.614 -17.805,-9.958 -6.521,-24.554 16.225,-61.151 17.563,-69.82 1.438,-9.312 -6.658,-63.5 -7.513,-90.938 C 188.389,26.662 147.48,-4.433 140.65,0.524 c -6.768,7.484 9.748,17.585 1.054,26.245 -8.398,8.367 -10.588,13.99 -16.824,23.46 -15.976,24.255 27.318,24.558 27.318,24.558 0,0 -33.882,25.112 -41.421,37.768 -6.943,11.656 -9.854,24.696 -18.232,35.688 -19.094,25.051 -14.791,68.729 -14.791,68.729 0,0 -36.17,-11.839 -16.264,-53.133 C 76.643,132.406 84.107,86.02 50.016,97.95 c -13.189,4.616 2.949,14.325 5.734,17.435 9.318,10.4 1.441,27.896 -4.174,38.012 -15.037,27.091 -20.496,55.475 11.154,72.978 14.063,7.776 33.055,9.7 52.17,9.982 l 48.64,0.14 c 16.024,0.797 34.149,-2.199 33.483,-10.952 z"
             id="path815" />
        </g>
      </g>
      <g
         style="fill:#5952b2;fill-opacity:1"
         id="g821" />
      <g
         style="fill:#5952b2;fill-opacity:1"
         id="g823" />
      <g
         style="fill:#5952b2;fill-opacity:1"
         id="g825" />
      <g
         style="fill:#5952b2;fill-opacity:1"
         id="g827" />
      <g
         style="fill:#5952b2;fill-opacity:1"
         id="g829" />
      <g
         style="fill:#5952b2;fill-opacity:1"
         id="g831" />
      <g
         style="fill:#5952b2;fill-opacity:1"
         id="g833" />
      <g
         style="fill:#5952b2;fill-opacity:1"
         id="g835" />
      <g
         style="fill:#5952b2;fill-opacity:1"
         id="g837" />
      <g
         style="fill:#5952b2;fill-opacity:1"
         id="g839" />
      <g
         style="fill:#5952b2;fill-opacity:1"
         id="g841" />
      <g
         style="fill:#5952b2;fill-opacity:1"
         id="g843" />
      <g
         style="fill:#5952b2;fill-opacity:1"
         id="g845" />
      <g
         style="fill:#5952b2;fill-opacity:1"
         id="g847" />
      <g
         style="fill:#5952b2;fill-opacity:1"
         id="g849" />
    </g>
    <path
       id="path304581"
       d="m -27.837111,193.18254 v 6.36133 l 6.398952,-6.36133 z"
       style="fill:#5952b2;fill-opacity:1;fill-rule:evenodd;stroke:none;stroke-width:0.53378224px;stroke-linecap:butt;stroke-linejoin:miter;stroke-opacity:1" />
    <path
       id="path304585"
       d="m 35.681737,178.52546 -5.974139,5.78131 h 5.974139 z"
       style="fill:#5952b2;fill-opacity:1;fill-rule:evenodd;stroke:none;stroke-width:0.54071426px;stroke-linecap:butt;stroke-linejoin:miter;stroke-opacity:1" />
  </g>
</svg>
